{"title":"Eurovision.Song.Contest.2014.Semifinal.1.720p.HDTV.FEED.x264.50f","uid":10120314,"size":4541086939,"categoryP":"video","categoryS":"other","magnet":"?xt=urn:btih:3e0743cf2c8e60fd18f6fbb0677968f5769a65e5&amp;dn=Eurovision.Song.Contest.2014.Semifinal.1.720p.HDTV.FEED.x264.50f&amp;tr=udp%3A%2F%2Ftracker.openbittorrent.com%3A80&amp;tr=udp%3A%2F%2Fopen.demonii.com%3A1337&amp;tr=udp%3A%2F%2Ftracker.coppersurfer.tk%3A6969&amp;tr=udp%3A%2F%2Fexodus.desync.com%3A6969","seeders":1,"leechers":0,"uploader":"Lawry1494","files":-1,"time":1399663419,"description":"General\nComplete name                  : Eurovision.Song.Contest.2014.Semifinal.1.720p.HDTV.FEED.x264.50fps.MP2-AMX.mkv\nFormat                         : Matroska\nFormat version                 : Version 4 / Version 2\nFile size                      : 4.15 GiB\nDuration                       : 2h 1mn\nOverall bit rate               : 4 875 Kbps\nWriting application            : mkvmerge v6.9.1 ('Blue Panther') 64bit built on Apr 18 2014 18:23:38\nWriting library                : libebml v1.3.0 + libmatroska v1.4.1\n\nVideo\nID                             : 1\nFormat                         : AVC\nFormat/Info                    : Advanced Video Codec\nFormat profile                 : &lt;a class=&quot;__cf_email__&quot; href=&quot;/cdn-cgi/l/email-protection&quot; data-cfemail=&quot;7139181619313d455f40&quot;&gt;[email&amp;#160;protected]&lt;/a&gt;&lt;script cf-hash='f9e31' type=&quot;text/javascript&quot;&gt;\n/* &lt;![CDATA[ */!function(){try{var t=&quot;currentScript&quot;in document?document.currentScript:function(){for(var t=document.getElementsByTagName(&quot;script&quot;),e=t.length;e--;)if(t[e].getAttribute(&quot;cf-hash&quot;))return t[e]}();if(t&amp;&amp;t.previousSibling){var e,r,n,i,c=t.previousSibling,a=c.getAttribute(&quot;data-cfemail&quot;);if(a){for(e=&quot;&quot;,r=parseInt(a.substr(0,2),16),n=2;a.length-n;n+=2)i=parseInt(a.substr(n,2),16)^r,e+=String.fromCharCode(i);e=document.createTextNode(e),c.parentNode.replaceChild(e,c)}}}catch(u){}}();/* ]]&gt; */&lt;/script&gt;\nFormat settings, CABAC         : Yes\nFormat settings, ReFrames      : 8 frames\nCodec ID                       : V_MPEG4/ISO/AVC\nDuration                       : 2h 1mn\nBit rate                       : 4 394 Kbps\nWidth                          : 1 280 pixels\nHeight                         : 720 pixels\nDisplay aspect ratio           : 16:9\nFrame rate mode                : Constant\nFrame rate                     : 50.000 fps\nColor space                    : YUV\nChroma subsampling             : 4:2:0\nBit depth                      : 8 bits\nScan type                      : Progressive\nBits/(Pixel*Frame)             : 0.095\nStream size                    : 3.74 GiB (90%)\nDefault                        : Yes\nForced                         : No\n\nAudio\nID                             : 2\nFormat                         : MPEG Audio\nFormat version                 : Version 1\nFormat profile                 : Layer 2\nMode                           : Dual mono\nCodec ID                       : A_MPEG/L2\nCodec ID/Hint                  : MP2\nDuration                       : 2h 1mn\nBit rate mode                  : Constant\nBit rate                       : 384 Kbps\nChannel(s)                     : 2 channels\nSampling rate                  : 48.0 KHz\nCompression mode               : Lossy\nDelay relative to video        : 4ms\nStream size                    : 335 MiB (8%)\nLanguage                       : English\nDefault                        : Yes\nForced                         : No\n\nSource: 01.ESC 2014.Semifinal 1.FEED 1080i_(ripped by J silver) Thanks!!!\n","torrent":{"xt":"urn:btih:3e0743cf2c8e60fd18f6fbb0677968f5769a65e5","amp;dn":"Eurovision.Song.Contest.2014.Semifinal.1.720p.HDTV.FEED.x264.50f","amp;tr":["udp%3A%2F%2Ftracker.openbittorrent.com%3A80","udp%3A%2F%2Fopen.demonii.com%3A1337","udp%3A%2F%2Ftracker.coppersurfer.tk%3A6969","udp%3A%2F%2Fexodus.desync.com%3A6969"],"infoHash":"3e0743cf2c8e60fd18f6fbb0677968f5769a65e5","infoHashBuffer":{"type":"Buffer","data":[62,7,67,207,44,142,96,253,24,246,251,176,103,121,104,245,118,154,101,229]},"announce":[],"urlList":[]}}